<svg xmlns="http://www.w3.org/2000/svg" width="512" height="512" viewBox="0 0 512 512">
  <rect width="512" height="512" rx="64" fill="#111827"/>
  <rect x="96" y="96" width="120" height="120" rx="16" fill="#b45309"/>
  <rect x="116" y="136" width="80" height="8" rx="4" fill="#fbbf24"/>
  <rect x="116" y="156" width="80" height="8" rx="4" fill="#fbbf24"/>
  <rect x="116" y="176" width="50" height="8" rx="4" fill="#fbbf24"/>
  <text x="256" y="180" text-anchor="middle" fill="#fbbf24" font-family="system-ui" font-size="48" font-weight="900">ICS</text>
  <text x="256" y="280" text-anchor="middle" fill="white" font-family="system-ui" font-size="28" font-weight="800">Security Studio</text>
  <text x="256" y="340" text-anchor="middle" fill="#647084" font-family="system-ui" font-size="18" font-weight="600">OT / ICS / SCADA</text>
  <g transform="translate(140,370)" fill="none" stroke="#b45309" stroke-width="2">
    <circle cx="0" cy="0" r="20"/><circle cx="60" cy="0" r="20"/><circle cx="120" cy="0" r="20"/><circle cx="180" cy="0" r="20"/><circle cx="240" cy="0" r="20"/>
    <line x1="20" y1="0" x2="40" y2="0"/><line x1="80" y1="0" x2="100" y2="0"/><line x1="140" y1="0" x2="160" y2="0"/><line x1="200" y1="0" x2="220" y2="0"/>
    <circle cx="0" cy="0" r="6" fill="#b45309"/><circle cx="60" cy="0" r="6" fill="#059669"/><circle cx="120" cy="0" r="6" fill="#2563eb"/><circle cx="180" cy="0" r="6" fill="#6d28d9"/><circle cx="240" cy="0" r="6" fill="#dc2626"/>
  </g>
</svg>
